<?xml version="1.0" standalone="no"?>
<!DOCTYPE svg PUBLIC "-//W3C//DTD SVG 20010904//EN"
 "http://www.w3.org/TR/2001/REC-SVG-20010904/DTD/svg10.dtd">
<svg version="1.0" xmlns="http://www.w3.org/2000/svg"
 width="659.000000pt" height="197.000000pt" viewBox="0 0 659.000000 197.000000"
 preserveAspectRatio="xMidYMid meet">

<g transform="translate(0.000000,197.000000) scale(0.100000,-0.100000)"
fill="#000000" stroke="none">
<path d="M0 985 l0 -985 3295 0 3295 0 0 985 0 985 -3295 0 -3295 0 0 -985z
m2285 497 c1 -53 -4 -100 -9 -104 -6 -4 -6 -11 1 -20 9 -10 5 -13 -19 -15 -17
-1 -38 2 -48 7 -13 7 -32 -7 -94 -69 l-78 -78 16 -31 c44 -85 -2 -201 -89
-229 -30 -10 -30 -10 -33 -95 l-3 -86 35 -20 c40 -23 63 -56 67 -92 10 -101
-83 -174 -174 -136 -42 17 -77 68 -77 111 0 45 32 97 73 118 l37 19 0 83 0 83
-32 11 c-41 15 -86 57 -103 99 l-14 32 -84 0 -85 0 -12 -31 c-16 -38 -64 -69
-105 -68 -16 0 -24 3 -17 6 6 2 9 9 6 14 -3 6 -12 5 -22 -3 -15 -11 -15 -11
-5 2 13 18 20 201 8 220 -6 10 1 11 31 6 50 -9 85 -34 104 -74 14 -29 19 -32
60 -32 93 0 120 10 136 48 l15 36 -51 51 c-48 49 -53 51 -101 51 -44 -1 -54 3
-75 27 -32 38 -32 86 2 126 36 44 93 44 136 1 27 -27 30 -36 26 -75 -5 -41 -3
-45 47 -95 l52 -52 33 17 c32 17 97 17 148 0 19 -6 34 5 100 68 61 61 74 79
64 89 -6 6 -12 32 -12 57 0 55 36 107 83 119 59 16 62 11 62 -96z m1386 -49
c57 -25 101 -69 131 -132 20 -39 23 -62 23 -151 0 -95 -3 -110 -27 -157 -16
-29 -44 -65 -63 -80 -19 -15 -35 -32 -35 -37 0 -4 29 -60 65 -124 36 -63 65
-116 65 -118 0 -2 -9 -4 -19 -4 -14 0 -37 31 -86 120 -37 66 -71 117 -77 114
-16 -10 -151 -24 -170 -18 -10 3 -18 12 -18 20 0 11 16 14 73 14 165 0 256 95
257 267 0 154 -62 245 -188 272 -29 6 -64 11 -77 11 l-25 0 0 -150 c0 -143 -1
-150 -20 -150 -19 0 -20 7 -20 166 l0 167 83 -5 c53 -3 98 -12 128 -25z m587
15 c-3 -9 -41 -14 -131 -16 l-127 -3 0 -244 c0 -211 -2 -245 -15 -245 -13 0
-15 36 -15 260 l0 260 146 0 c112 0 145 -3 142 -12z m426 3 c10 -16 -24 -21
-140 -21 l-114 0 0 -245 c0 -209 -2 -245 -15 -245 -12 0 -14 38 -14 260 l0
260 139 0 c76 0 141 -4 144 -9z m304 -4 c6 0 12 -4 12 -9 0 -5 4 -7 9 -3 5 3
12 1 15 -3 3 -5 -30 -7 -74 -5 l-80 5 -1 -223 c0 -123 -2 -297 -5 -387 l-5
-164 76 4 c58 2 75 0 75 -11 0 -8 -6 -11 -15 -7 -8 3 -15 1 -15 -4 0 -6 -31
-10 -70 -10 l-70 0 0 408 c0 225 3 412 8 416 4 4 34 5 67 1 33 -4 66 -8 73 -8z
m-1799 -31 c64 -33 147 -114 132 -129 -7 -7 -28 6 -66 42 -30 29 -76 61 -101
72 -55 25 -174 36 -226 21 -41 -11 -48 -7 -20 15 13 10 43 13 122 10 91 -3
112 -7 159 -31z m851 -527 c0 -6 -9 -13 -20 -16 -18 -5 -20 -14 -20 -109 l0
-103 132 -3 c94 -2 133 -7 136 -15 3 -10 -31 -13 -147 -13 l-151 0 0 135 0
135 35 0 c19 0 35 -5 35 -11z m435 2 c3 -5 -5 -11 -17 -13 -22 -3 -23 -6 -23
-113 0 -81 3 -110 13 -111 6 -1 66 -2 132 -3 73 -1 120 -5 120 -11 0 -6 -57
-10 -150 -10 l-150 0 0 128 c0 71 3 132 7 135 10 10 61 8 68 -2z m-1198 -157
c-56 -52 -124 -85 -199 -97 -28 -4 -38 -2 -38 8 0 8 20 18 53 24 65 14 145 59
183 104 22 26 32 32 43 23 11 -8 2 -21 -42 -62z m-367 -69 c8 -1 25 -2 38 -3
12 -1 22 -8 22 -16 0 -11 -8 -12 -35 -6 -20 4 -41 13 -49 19 -7 6 -15 8 -18 5
-3 -2 -8 2 -12 11 -5 13 -2 14 17 3 12 -6 29 -12 37 -13z"/>
<path d="M1830 1182 c-78 -78 -25 -202 86 -202 28 0 44 8 70 34 40 40 46 78
22 139 -24 61 -128 78 -178 29z"/>
</g>
</svg>
